<?xml version="1.0" encoding="UTF-8" standalone="no"?>
<svg
   id="Calque_1"
   viewBox="0 0 166.91 125.57691"
   version="1.1"
   sodipodi:docname="LOGO_BNZ-TOITURES.svg"
   inkscape:version="1.4.4 (dcaf3e7, 2026-05-05)"
   width="166.91"
   height="125.57691"
   xmlns:inkscape="http://www.inkscape.org/namespaces/inkscape"
   xmlns:sodipodi="http://sodipodi.sourceforge.net/DTD/sodipodi-0.dtd"
   xmlns="http://www.w3.org/2000/svg"
   xmlns:svg="http://www.w3.org/2000/svg">
  <defs
     id="defs41" />
  <sodipodi:namedview
     id="namedview41"
     pagecolor="#ffffff"
     bordercolor="#000000"
     borderopacity="0.25"
     inkscape:showpageshadow="2"
     inkscape:pageopacity="0.0"
     inkscape:pagecheckerboard="0"
     inkscape:deskcolor="#d1d1d1"
     showgrid="false"
     inkscape:zoom="5.7816682"
     inkscape:cx="83.539903"
     inkscape:cy="67.886981"
     inkscape:window-width="1920"
     inkscape:window-height="1129"
     inkscape:window-x="-8"
     inkscape:window-y="-8"
     inkscape:window-maximized="1"
     inkscape:current-layer="Calque_1" />
  <path
     d="m 166.91,69.672222 -1.43,2.52 -83.17,-47.59 -80.81,47.93 c 0,0 -0.3,-0.47 -0.41,-0.67 -0.21,-0.36 -1.07,-1.94 -1.09,-1.96 l 82.31,-48.61 z"
     style="fill:#f8b36a"
     id="path1" />
  <path
     d="m 101.43028,97.695882 c -0.2218,0.2218 -4.71952,0.2218 -5.40958,0.18483 -0.86258,-0.0493 -2.19341,-0.13554 -2.92044,-0.44361 C 85.21384,85.287095 77.41369,73.05083 70.78417,60.161471 c 1.60193,-0.234128 2.99437,-0.184838 4.60862,-0.357354 0.99813,-0.09858 3.15457,-0.566836 3.53657,-0.08626 7.45512,12.11304 15.61263,23.881049 21.9957,36.622545 0.22181,0.43128 0.52987,0.85025 0.50522,1.35547 z"
     style="fill:#0091ae;stroke-width:1.23225"
     id="path2" />
  <path
     d="m 70.24198,62.207009 8.63809,15.538702 c 0.19716,5.126169 0.16019,11.188851 0.20948,16.339671 0,0.61612 0.45593,3.36405 -0.28342,3.59817 -0.19716,0.0616 -1.72515,0.18484 -2.09483,0.20949 -1.33083,0.0739 -3.10527,0.0739 -4.44843,0 -0.40664,-0.0247 -1.87302,-0.0986 -2.00857,-0.46826 l -0.0246,-35.20545 z"
     style="fill:#0091ae;stroke-width:1.23225"
     id="path3" />
  <path
     d="m 102.10802,60.0136 -0.41896,35.069902 -8.19448,-15.008834 c 0.0986,-6.235197 -0.6038,-13.517808 -0.32039,-19.753005 l 0.20949,-0.14787 c 2.3536,-0.308063 4.7072,-0.14787 7.07313,-0.19716 0.57915,0 1.21993,0 1.65121,0.01232 z"
     style="fill:#0091ae;stroke-width:1.23225"
     id="path4" />
  <path
     d="m 121.25722,118.77972 h -11.86659 c 0.71471,3.81998 5.28637,4.34985 7.8741,1.94695 l 3.10527,1.50335 c -4.69488,6.16126 -15.21831,3.17921 -14.70077,-5.13849 0.51755,-8.3177 12.1993,-9.99357 14.91026,-2.87115 0.52986,1.40477 0.67773,4.04179 0.67773,4.22663 v 0.32038 z m -3.89391,-3.01902 c -1.0351,-3.65979 -6.67881,-3.54889 -7.80016,0 z"
     style="fill:#0091ae;stroke-width:1.23225"
     id="path5" />
  <path
     d="m 54.087154,109.96911 c 10.092146,-0.97348 11.804976,13.54245 2.563084,15.30457 -11.114915,2.11948 -13.111164,-14.2818 -2.563084,-15.30457 z m -2.020894,10.86847 c 2.193409,2.19341 6.296809,0.97348 6.802032,-2.0209 0.529869,-3.17921 -1.281542,-5.72997 -4.657913,-5.36029 -3.376371,0.36967 -4.362173,5.16313 -2.144119,7.36886 z"
     style="fill:#0091ae;stroke-width:1.23225"
     id="path6" />
  <path
     d="m 93.63013,110.27717 v 9.64854 c -0.0739,1.28154 -0.72703,2.40289 -1.09671,2.98205 -2.40289,3.73372 -8.97079,3.53656 -11.06562,-0.50522 -0.19716,-0.382 -0.59148,-1.33084 -0.59148,-2.47683 v -9.64854 h 3.7214 v 9.11867 c 0,0.45593 0.25877,1.15832 0.34503,1.29387 0.97348,1.52799 3.10527,1.68818 4.17733,0.57915 0.24645,-0.25877 0.77632,-0.73935 0.78865,-1.68818 v -9.29118 h 3.7214 z"
     style="fill:#0091ae;stroke-width:1.23225"
     id="path7" />
  <polygon
     points="83.17,120.67 83.17,107.45 80.15,107.45 80.15,104.43 80.37,104.43 89.21,104.43 89.21,107.45 86.34,107.45 86.34,120.67 86.12,120.67 "
     style="fill:#0091ae"
     id="polygon7"
     transform="matrix(1.2322523,0,0,1.2322523,-64.307647,-23.545428)" />
  <path
     d="m 132.39678,113.30852 c -0.36967,0.48057 -0.70238,0.87489 -1.13367,1.38012 -0.86257,-0.83793 -2.29199,-1.90999 -3.52424,-1.20761 -2.04554,1.17064 2.56309,2.69863 3.24082,3.09295 2.27967,1.33084 3.53657,3.30244 2.45219,5.9641 -1.61425,3.98018 -8.2068,3.75837 -10.20305,0.25878 l 2.19341,-2.41522 c 0.88722,1.05974 2.76024,2.31664 4.15269,1.49103 2.42753,-1.46638 -2.83418,-3.33941 -3.65979,-3.93089 -4.85508,-3.43798 -1.146,-9.11866 4.23895,-7.78783 0.70238,0.17251 2.52611,1.07206 3.24082,1.89767 0,0 -0.59148,0.72703 -1.01045,1.26922 z"
     style="fill:#0091ae;stroke-width:1.23225"
     id="path8" />
  <path
     d="m 76.62505,104.96617 v 5.311 c 1.44173,0 1.67586,0 2.48915,0 v 3.24083 c 0,0 -2.1318,0 -2.1318,0 h -0.32039 c 0,2.71095 0,5.40959 0,8.21912 0,1.01045 0,2.27967 0,3.41334 h -3.73372 v -11.68175 h -1.94696 c 0,0 0,-3.19154 0,-3.19154 h 1.94696 v -5.311 h 3.7214 z"
     style="fill:#0091ae;stroke-width:1.23225"
     id="path9" />
  <path
     d="m 99.82836,110.27717 c 0,0 -0.0123,0.86258 0,1.58961 1.14599,-1.58961 2.89579,-2.53844 4.78114,-1.49103 l -1.05974,3.01902 c -0.28342,-0.1109 -1.54032,-0.73935 -2.46451,0.54219 -0.69006,0.97348 -0.89954,3.35173 -0.92419,4.57166 -0.037,2.23038 0.0493,4.18966 0,6.64184 h -3.54888 v -14.87329 h 3.19153 z"
     style="fill:#0091ae;stroke-width:1.23225"
     id="path10" />
  <polygon
     points="105.38,120.67 105.17,120.67 105.17,108.6 105.38,108.6 108.12,108.6 108.33,108.6 108.33,120.67 108.12,120.67 "
     style="fill:#0091ae"
     id="polygon10"
     transform="matrix(1.2322523,0,0,1.2322523,-64.307647,-23.545428)" />
  <path
     d="m 66.84096,104.28843 c 3.17921,-0.52987 3.78302,4.18966 0.97348,4.7072 -3.37637,0.61613 -3.93088,-4.2143 -0.97348,-4.7072 z"
     style="fill:#0091ae;stroke-width:1.23225"
     id="path11" />
  <path
     d="m 166.62,60.842222 -24.99,-14.18 -0.05,-29.26 c 0,-1.04 -0.4,-1.76 -2.2,-1.76 -7.28,0 -11.33,0 -19.56,0 -0.86,-0.01 -1.94,0.35 -1.94,1.8 v 15.45 l -35.72,-20.54 -20.63,12.29 c -0.44,0.15 -0.75,-0.24 -1.19,-0.2 -1.6,0.15 -2.12,1.36 -4.49,1.12 -0.66,-0.07 -1.76,-0.56 -1.15,-1.28 0.81,-0.94 2.96,-1.81 3.94,-2.69 h 0.29 c 0,0 0.96,1.23 0.96,1.23 0.3,0.08 1.44,-0.69 1.13,-1.13 l -2.38,-2.81 c -0.33,-0.19 -1.22,0.69 -1.28,0.9 -0.13,0.48 0.91,0.89 0.7,1.19 -2.05,0.94 -4.96,3.12 -7.34,2.38 -0.26,-0.08 -1.59,-1.18 -1.86,-1.44 -2.38,-2.25 -3.4,-5.52 -5.11,-8.26 -0.09,-0.56 -0.3,-1.27 0.15,-1.73 2.35,1.71 4.44,-0.97 4.66,-3.2399998 l 2.35,-0.06 c 1.83,-2.46 0.99,-5.83 -1.41,-7.52 -0.1,-0.08 -0.21,-0.14999998 -0.36,-0.23999998 -3.31,-1.94000002 -5.89,0 -5.89,0 -0.97,0.68999998 -1.63,1.96999998 -1.83,3.11999998 -0.09,0.49 0.05,1.02 -0.1,1.48 -0.15,0.46 -1.09,1.29 -1.59,1.29 -1.51,0 -3,-0.43 -4.57,-0.11 -1.94,0.39 -6.98,3.5599998 -8.66,4.8599998 -5.6,4.32 -9.46,7.75 -8.37,15.55 0.27,1.94 1.16,3.7 1.48,5.56 0.53,3.13 -1.18,7.06 -2.81,9.71 -1.28,2.07 -4.44,5.66 -5.18,7.61 -0.61,1.6 -0.3,2.7 1.15,3.6 l -12.73,7.54 1.24,2.59 81.01,-47.85 83.18,47.68 c 0.65,-1.15 0.97,-1.76 1.24,-2.29 0.08,-0.16 0.09,-0.25 -0.09,-0.36 z m -148.07,-10.71 0.86,-1.72 c 0.25,-0.18 0.91,0.78 0.86,0.86 z m 9.25,-15.93 c 0.67,0.46 0.89,1.02 0.88,1.26 -0.01,0.24 -1.55,1.29 -2.51,1.45 -0.07,-1.12 0.04,-2.98 0.24,-3.27 0.07,-0.11 0.59,0.02 1.39,0.57 z m -4.07,12.91 c 1.17,-5.35 9.12,-4.81 11.14,-9.49 0.78,-1.81 0.79,-3.71 0.36,-5.6 l 7.62,3.59 -19.12,11.49 z m 20.26,-12.14 -10.11,-4.98 c -0.36,-0.3 -0.38,-0.98 -0.52,-1.42 l 14.52,4.31 z m 5.27,-3.1 -16.9,-4.96 c -1.93,-1.89 1.55,-4.15 2.97,-5.21 1.43,-1.07 2.98,-2 4.43,-3.05 l 0.22,0.07 c 1.26,1.65 2.77,3.21 4.39,4.53 0.74,0.6 6.75,4.75 7.18,4.75 h 4.24 l -6.52,3.88 z m 88.61,12.51 -16.24,-9.2 v -15.81 h 16.24 v 25 z"
     style="fill:#0091ae"
     id="path12" />
  <path
     d="m 60.852219,77.868936 c 1.293865,-0.899544 2.267341,-1.392445 3.154561,-2.772568 2.55076,-3.967852 1.61425,-10.129114 -2.291985,-12.877036 -4.657913,-3.290114 -13.678,-2.427537 -19.19849,-2.218054 -1.873024,0.07393 -3.746047,-0.110903 -5.594426,0.24645 l 0.02464,13.517808 h 9.007764 c 0,-0.332708 -0.01232,-0.640771 -0.01232,-0.899544 0,-0.332708 0,-1.601928 0,-1.983926 0,-0.800964 0.03697,-3.585855 0.03697,-3.585855 0.320386,-0.19716 5.853199,-0.08626 6.59255,0 2.205732,0.258773 3.832305,1.232253 3.844627,3.6105 0,4.510043 -6.765065,4.337528 -10.437177,4.177335 h -9.020086 l 0.03697,22.229836 c 1.860701,0.36967 2.747923,0.30806 4.128045,0.39432 5.261718,0.28342 14.725415,0.88722 19.506554,-1.02277 7.898734,-3.14224 8.416274,-15.723543 0.234128,-18.804173 z m -5.619071,12.002136 c -1.41709,0.55452 -6.457002,0.44362 -8.095897,0.43129 -0.369676,0 -1.07206,-0.0246 -1.145995,-0.0246 0,0 -0.01232,-1.61425 -0.01232,-1.68818 v -6.641846 h 7.171706 c 1.577283,0 2.378247,0.640771 2.809535,0.911867 2.304312,1.491025 2.119474,5.902489 -0.714706,7.011519 z"
     style="fill:#0091ae;stroke-width:1.23225"
     id="path13" />
  <path
     d="m 107.17258,59.976633 c -0.382,2.710955 -0.94883,5.397265 -0.78864,8.15751 1.57728,-0.07394 3.14224,-0.14787 4.71953,-0.209483 1.56496,-0.06161 3.11759,-0.110903 4.68255,-0.172515 1.19529,-0.04929 2.37825,-0.135548 3.57354,-0.06161 l 5.15081,-7.652287 -17.33779,-0.07394 z"
     style="fill:#0091ae;stroke-width:1.23225"
     id="path14" />
  <path
     d="m 116.66092,89.735532 14.5529,-22.722739 c 0.51755,-1.195284 0.28342,-4.288238 0.12323,-5.680683 -0.037,-0.357353 -0.18484,-1.096704 -0.50523,-1.256897 l -4.76881,-0.02464 -5.72998,8.35467 v 0 l -14.34341,22.266799 c -0.41897,0.77632 0.29574,6.64184 0.59148,6.839 l 24.31234,0.52987 c 0.36967,-0.12323 0.56683,-2.23038 0.61612,-2.74793 0.23413,-1.94695 0.35736,-3.95552 0.382,-5.91481 -5.06456,0.50523 -10.15376,0.33271 -15.23064,0.35736 z"
     style="fill:#0091ae;stroke-width:1.23225"
     id="path15" />
  <path
     d="m 12.8,53.512222 -12.73,7.54 1.24,2.59 80.98,-47.83 83.18,47.68 c 0.65,-1.15 0.97,-1.76 1.24,-2.29 0.08,-0.16 0.09,-0.25 -0.09,-0.36 l -24.99,-14.18 -0.05,-29.26 c 0,-1.04 -0.4,-1.76 -2.2,-1.76 h -19.56 c -0.86,-0.01 -1.94,0.35 -1.94,1.8 v 15.45 l -35.72,-20.54 -21.06,12.44 m 76.77,19.59 -16.24,-9.2 v -15.81 h 16.24 v 25 z"
     style="fill:#f8b36a"
     id="path41"
     sodipodi:nodetypes="cccccccccscsccccccccc" />
</svg>
