<?xml version="1.0" encoding="UTF-8" standalone="no"?>
<svg
   id="Calque_1"
   viewBox="0 0 80.640472 53.619073"
   version="1.1"
   sodipodi:docname="logo simple.svg"
   inkscape:version="1.4.4 (dcaf3e7, 2026-05-05)"
   width="80.640472"
   height="53.619076"
   xmlns:inkscape="http://www.inkscape.org/namespaces/inkscape"
   xmlns:sodipodi="http://sodipodi.sourceforge.net/DTD/sodipodi-0.dtd"
   xmlns="http://www.w3.org/2000/svg"
   xmlns:svg="http://www.w3.org/2000/svg">
  <defs
     id="defs41" />
  <sodipodi:namedview
     id="namedview41"
     pagecolor="#ffffff"
     bordercolor="#000000"
     borderopacity="0.25"
     inkscape:showpageshadow="2"
     inkscape:pageopacity="0.0"
     inkscape:pagecheckerboard="0"
     inkscape:deskcolor="#d1d1d1"
     showgrid="false"
     inkscape:zoom="5.7816682"
     inkscape:cx="50.504454"
     inkscape:cy="31.738244"
     inkscape:window-width="1920"
     inkscape:window-height="1129"
     inkscape:window-x="-8"
     inkscape:window-y="-8"
     inkscape:window-maximized="1"
     inkscape:current-layer="Calque_1" />
  <path
     d="m 54.35,30.992999 c -0.18,0.18 -3.83,0.18 -4.39,0.15 -0.7,-0.04 -1.78,-0.11 -2.37,-0.36 -6.4,-9.86 -12.73,-19.79 -18.11,-30.25000036 1.3,-0.19 2.43,-0.15 3.74,-0.29 0.81,-0.08 2.56,-0.46 2.87,-0.07 6.05,9.83000036 12.67,19.38000036 17.85,29.72000036 0.18,0.35 0.43,0.69 0.41,1.1 z"
     style="fill:#0091ae"
     id="path2" />
  <path
     d="m 29.04,2.1929986 7.01,12.6100004 c 0.16,4.16 0.13,9.08 0.17,13.26 0,0.5 0.37,2.73 -0.23,2.92 -0.16,0.05 -1.4,0.15 -1.7,0.17 -1.08,0.06 -2.52,0.06 -3.61,0 -0.33,-0.02 -1.52,-0.08 -1.63,-0.38 L 29.03,2.2029986 Z"
     style="fill:#0091ae"
     id="path3" />
  <path
     d="m 54.9,0.41299864 -0.34,28.46000036 -6.65,-12.18 c 0.08,-5.06 -0.49,-10.9700004 -0.26,-16.03000036 l 0.17,-0.12 c 1.91,-0.25 3.82,-0.12 5.74,-0.16 0.47,0 0.99,0 1.34,0.01 z"
     style="fill:#0091ae"
     id="path4" />
  <path
     d="m 70.44,48.102999 h -9.63 c 0.58,3.100001 4.29,3.530001 6.39,1.58 l 2.52,1.22 c -3.81,5.000001 -12.35,2.580001 -11.93,-4.17 0.42,-6.75 9.9,-8.11 12.1,-2.33 0.43,1.14 0.55,3.28 0.55,3.43 v 0.26 z m -3.16,-2.45 c -0.84,-2.97 -5.42,-2.88 -6.33,0 z"
     style="fill:#0091ae"
     id="path5" />
  <path
     d="M 15.93,40.952999 C 24.12,40.162999 25.51,51.943 18.01,53.373 8.99,55.093 7.37,41.782999 15.93,40.952999 Z m -1.64,8.82 c 1.78,1.780001 5.11,0.79 5.52,-1.64 0.43,-2.58 -1.04,-4.65 -3.78,-4.35 -2.74,0.3 -3.54,4.19 -1.74,5.98 z"
     style="fill:#0091ae"
     id="path6" />
  <path
     d="m 48.02,41.202999 v 7.83 c -0.06,1.04 -0.59,1.95 -0.89,2.420001 -1.95,3.03 -7.28,2.87 -8.98,-0.41 -0.16,-0.310001 -0.48,-1.080001 -0.48,-2.010001 v -7.83 h 3.02 v 7.4 c 0,0.37 0.21,0.94 0.28,1.05 0.79,1.24 2.52,1.370001 3.39,0.47 0.2,-0.21 0.63,-0.6 0.64,-1.37 v -7.54 h 3.02 z"
     style="fill:#0091ae"
     id="path7" />
  <polygon
     points="80.15,104.43 80.37,104.43 89.21,104.43 89.21,107.45 86.34,107.45 86.34,120.67 86.12,120.67 83.17,120.67 83.17,107.45 80.15,107.45 "
     style="fill:#0091ae"
     id="polygon7"
     transform="translate(-80.15,-67.397001)" />
  <path
     d="m 79.48,43.662999 c -0.3,0.39 -0.57,0.71 -0.92,1.12 -0.7,-0.68 -1.86,-1.55 -2.86,-0.98 -1.66,0.95 2.08,2.19 2.63,2.51 1.85,1.08 2.87,2.68 1.99,4.840001 -1.31,3.23 -6.66,3.05 -8.28,0.21 l 1.78,-1.960001 c 0.72,0.86 2.24,1.880001 3.37,1.21 1.97,-1.19 -2.3,-2.71 -2.97,-3.19 -3.94,-2.79 -0.93,-7.4 3.44,-6.32 0.57,0.14 2.05,0.87 2.63,1.54 0,0 -0.48,0.59 -0.82,1.03 z"
     style="fill:#0091ae"
     id="path8" />
  <path
     d="m 34.22,36.892999 v 4.31 c 1.17,0 1.36,0 2.02,0 v 2.63 c 0,0 -1.73,0 -1.73,0 h -0.26 c 0,2.2 0,4.39 0,6.67 0,0.820001 0,1.850001 0,2.770001 h -3.03 v -9.480001 h -1.58 c 0,0 0,-2.59 0,-2.59 h 1.58 v -4.31 h 3.02 z"
     style="fill:#0091ae"
     id="path9" />
  <path
     d="m 53.05,41.202999 c 0,0 -0.01,0.7 0,1.29 0.93,-1.29 2.35,-2.06 3.88,-1.21 l -0.86,2.45 c -0.23,-0.09 -1.25,-0.6 -2,0.44 -0.56,0.79 -0.73,2.72 -0.75,3.71 -0.03,1.81 0.04,3.400001 0,5.390001 H 50.44 V 41.202999 h 2.59 z"
     style="fill:#0091ae"
     id="path10" />
  <polygon
     points="105.38,108.6 108.12,108.6 108.33,108.6 108.33,120.67 108.12,120.67 105.38,120.67 105.17,120.67 105.17,108.6 "
     style="fill:#0091ae"
     id="polygon10"
     transform="translate(-80.15,-67.397001)" />
  <path
     d="m 26.28,36.342999 c 2.58,-0.43 3.07,3.4 0.79,3.82 -2.74,0.5 -3.19,-3.42 -0.79,-3.82 z"
     style="fill:#0091ae"
     id="path11" />
  <path
     d="m 21.42,14.902999 c 1.05,-0.73 1.84,-1.13 2.56,-2.25 C 26.05,9.4329986 25.29,4.4329986 22.12,2.2029986 18.34,-0.46700136 11.02,0.23299864 6.54,0.40299864 c -1.52,0.06 -3.04,-0.09 -4.54,0.2 L 2.02,11.572999 h 7.31 c 0,-0.27 -0.01,-0.52 -0.01,-0.73 0,-0.27 0,-1.3000004 0,-1.6100004 0,-0.65 0.03,-2.91 0.03,-2.91 0.26,-0.16 4.75,-0.07 5.35,0 1.79,0.21 3.11,1 3.12,2.93 0,3.6600004 -5.49,3.5200004 -8.47,3.3900004 H 2.03 l 0.03,18.04 c 1.51,0.3 2.23,0.25 3.35,0.32 4.27,0.23 11.95,0.72 15.83,-0.83 6.41,-2.55 6.83,-12.76 0.19,-15.26 z m -4.56,9.74 c -1.15,0.45 -5.24,0.36 -6.57,0.35 -0.3,0 -0.87,-0.02 -0.93,-0.02 0,0 -0.01,-1.31 -0.01,-1.37 v -5.39 h 5.82 c 1.28,0 1.93,0.52 2.28,0.74 1.87,1.21 1.72,4.79 -0.58,5.69 z"
     style="fill:#0091ae"
     id="path13" />
  <path
     d="M 59.01,0.38299864 C 58.7,2.5829986 58.24,4.7629986 58.37,7.0029986 c 1.28,-0.06 2.55,-0.12 3.83,-0.17 1.27,-0.05 2.53,-0.09 3.8,-0.14 0.97,-0.04 1.93,-0.11 2.9,-0.05 l 4.18,-6.20999996 -14.07,-0.06 z"
     style="fill:#0091ae"
     id="path14" />
  <path
     d="M 66.71,24.532999 78.52,6.0929986 c 0.42,-0.97 0.23,-3.48 0.1,-4.61 -0.03,-0.29 -0.15,-0.88999996 -0.41,-1.01999996 l -3.87,-0.02 -4.65,6.77999996 v 0 L 58.05,25.292999 c -0.34,0.63 0.24,5.39 0.48,5.55 l 19.73,0.43 c 0.3,-0.1 0.46,-1.81 0.5,-2.23 0.19,-1.58 0.29,-3.21 0.31,-4.8 -4.11,0.41 -8.24,0.27 -12.36,0.29 z"
     style="fill:#0091ae"
     id="path15" />
</svg>
